<?xml version="1.0" encoding="UTF-8" standalone="no"?>
<svg
   xmlns:dc="http://purl.org/dc/elements/1.1/"
   xmlns:cc="http://creativecommons.org/ns#"
   xmlns:rdf="http://www.w3.org/1999/02/22-rdf-syntax-ns#"
   xmlns:svg="http://www.w3.org/2000/svg"
   xmlns="http://www.w3.org/2000/svg"
   xmlns:sodipodi="http://sodipodi.sourceforge.net/DTD/sodipodi-0.dtd"
   xmlns:inkscape="http://www.inkscape.org/namespaces/inkscape"
   width="500"
   height="500"
   version="1.1"
   id="svg23"
   sodipodi:docname="clases_de_ingles_icon.svg"
   inkscape:version="0.92.5 (2060ec1f9f, 2020-04-08)"
   inkscape:export-filename="/home/user1/Documents/Freelance/Intercambio/content/images/clases_de_ingles_icon.png"
   inkscape:export-xdpi="800"
   inkscape:export-ydpi="800">
  <metadata
     id="metadata27">
    <rdf:RDF>
      <cc:Work
         rdf:about="">
        <dc:format>image/svg+xml</dc:format>
        <dc:type
           rdf:resource="http://purl.org/dc/dcmitype/StillImage" />
        <dc:title />
      </cc:Work>
    </rdf:RDF>
  </metadata>
  <sodipodi:namedview
     pagecolor="#ffffff"
     bordercolor="#ffffff"
     borderopacity="0"
     objecttolerance="10"
     gridtolerance="10"
     guidetolerance="10"
     inkscape:pageopacity="1"
     inkscape:pageshadow="2"
     inkscape:window-width="1848"
     inkscape:window-height="1016"
     id="namedview25"
     showgrid="false"
     inkscape:pagecheckerboard="false"
     inkscape:zoom="1.676"
     inkscape:cx="140.81146"
     inkscape:cy="247.61337"
     inkscape:window-x="72"
     inkscape:window-y="27"
     inkscape:window-maximized="1"
     inkscape:current-layer="svg23"
     showguides="true"
     inkscape:guide-bbox="true">
    <sodipodi:guide
       position="223.15036,250.59666"
       orientation="0,1"
       id="guide824"
       inkscape:locked="false" />
    <sodipodi:guide
       position="250,240.45346"
       orientation="1,0"
       id="guide826"
       inkscape:locked="false" />
  </sodipodi:namedview>
  <defs
     id="defs6">
    <path
       id="U"
       d="m 0,0 v -23.52456 h 7.36985 l 0.0295,24.3205 c 0.19933,6.05928 4.68048,10.91014 10.19987,10.99581 5.68952,0 10.2883,-5.04097 10.2883,-10.99581 v -24.3205 h 7.34037 l 0.0295,23.64247 c 0,10.78946 -7.84151,18.83733 -17.65815,18.83733 C 7.78259,18.95524 4e-5,10.2883 4e-5,0 Z"
       inkscape:connector-curvature="0" />
    <path
       id="N"
       d="M 0,0 H 7.36985 V -41.00584 H 0 v 28.09386 l -21.1662,-28.09386 h -7.39933 V 0 h 7.39933 v -27.56324 z"
       inkscape:connector-curvature="0" />
    <path
       id="D"
       d="m 0,0 v 40.98489 l 14.85232,-0.0313 c 10.78945,1e-5 19.45843,-9.2074 19.45843,-20.58645 C 34.31075,9.07654 25.85927,3e-5 15.04033,3e-5 Z m 14.78965,7.52017 c 6.78026,0 12.22027,5.80137 12.22027,12.84694 0,7.13402 -5.62801,12.87828 -12.40827,12.87828 L 7.4575,33.27669 V 7.55146 Z"
       inkscape:connector-curvature="0" />
    <path
       id="R"
       d="M 0,0 V 40.98489 H 7.39483 V 24.65987 h 4.4181 l 11.59358,16.32502 h 7.99018 L 19.48976,23.18717 C 23.46948,21.12361 26.16391,17.15259 26.16391,12.37694 26.16391,5.5672 20.62806,0 13.81831,0 Z m 7.48883,7.23816 6.32948,0.0313 c 2.83002,0 5.10744,2.27742 5.10744,5.10745 0,2.80054 -2.27741,5.07611 -5.10744,5.07611 H 7.48883 Z"
       inkscape:connector-curvature="0" />
  </defs>
  <circle
     id="ring"
     style="fill:none;stroke:#dc241f;stroke-width:63.52057266"
     cx="250"
     cy="249.41376"
     r="151.54193" />
  <path
     id="bar"
     style="fill:none;stroke:#0019a8;stroke-width:69.87262726"
     d="M 23.140812,249.41377 H 476.85919"
     inkscape:connector-curvature="0" />
  <text
     xml:space="preserve"
     style="font-style:normal;font-variant:normal;font-weight:bold;font-stretch:normal;font-size:60.36428833px;line-height:1.25;font-family:Arial;-inkscape-font-specification:'Arial, Bold';font-variant-ligatures:normal;font-variant-caps:normal;font-variant-numeric:normal;font-feature-settings:normal;text-align:start;letter-spacing:0px;word-spacing:0px;writing-mode:lr-tb;text-anchor:start;fill:#fffff6;fill-opacity:1;stroke:none;stroke-width:1.13183546"
     x="50.759048"
     y="258.06763"
     id="text31"
     transform="scale(0.94696377,1.0560066)"><tspan
       sodipodi:role="line"
       id="tspan29"
       x="50.759048"
       y="258.06763"
       style="font-style:normal;font-variant:normal;font-weight:bold;font-stretch:normal;font-size:60.36428833px;font-family:Arial;-inkscape-font-specification:'Arial, Bold';font-variant-ligatures:normal;font-variant-caps:normal;font-variant-numeric:normal;font-feature-settings:normal;text-align:start;writing-mode:lr-tb;text-anchor:start;fill:#fffff6;fill-opacity:1;stroke-width:1.13183546">INTERCAMBIO</tspan></text>
</svg>
